<svg width="78" height="78" viewBox="0 0 78 78" fill="none" xmlns="http://www.w3.org/2000/svg">
    <g clip-path="url(#clip0)">
        <path d="M72.814 40.01a2.286 2.286 0 0 1 0-2.02l2.909-5.952a6.771 6.771 0 0 0-2.922-8.991l-5.852-3.105a2.286 2.286 0 0 1-1.187-1.634l-1.144-6.525a6.772 6.772 0 0 0-7.65-5.558l-6.558.928a2.286 2.286 0 0 1-1.922-.624l-4.76-4.606a6.77 6.77 0 0 0-9.455 0L29.512 6.53a2.287 2.287 0 0 1-1.922.625l-6.558-.928a6.77 6.77 0 0 0-7.65 5.557l-1.144 6.525a2.286 2.286 0 0 1-1.187 1.634l-5.852 3.105a6.771 6.771 0 0 0-2.921 8.992l2.909 5.951a2.286 2.286 0 0 1 0 2.02l-2.91 5.952A6.771 6.771 0 0 0 5.2 54.953l5.852 3.105c.631.335 1.064.931 1.187 1.635l1.145 6.524a6.767 6.767 0 0 0 7.649 5.558l6.558-.928c.708-.1 1.408.127 1.922.624l4.76 4.606A6.778 6.778 0 0 0 39 78a6.78 6.78 0 0 0 4.727-1.923l4.761-4.606a2.288 2.288 0 0 1 1.922-.624l6.559.928a6.77 6.77 0 0 0 7.649-5.558l1.144-6.524c.124-.704.556-1.3 1.188-1.635l5.851-3.105a6.771 6.771 0 0 0 2.922-8.992l-2.91-5.95zm-2.122 10.97l-5.851 3.104a6.756 6.756 0 0 0-3.51 4.831l-1.144 6.525a2.291 2.291 0 0 1-2.588 1.88l-6.56-.928a6.754 6.754 0 0 0-5.679 1.846l-4.76 4.605a2.291 2.291 0 0 1-3.2 0l-4.76-4.606a6.75 6.75 0 0 0-5.68-1.845l-6.559.928a2.291 2.291 0 0 1-2.587-1.88l-1.145-6.525a6.755 6.755 0 0 0-3.51-4.831l-5.852-3.105a2.29 2.29 0 0 1-.988-3.042l2.909-5.951a6.756 6.756 0 0 0 0-5.972l-2.91-5.951a2.29 2.29 0 0 1 .99-3.042l5.85-3.105a6.756 6.756 0 0 0 3.51-4.831l1.145-6.525a2.29 2.29 0 0 1 2.588-1.88l6.559.928a6.756 6.756 0 0 0 5.68-1.846l4.76-4.605a2.291 2.291 0 0 1 3.2 0l4.76 4.605a6.755 6.755 0 0 0 5.68 1.846l6.558-.928a2.291 2.291 0 0 1 2.588 1.88l1.145 6.525a6.755 6.755 0 0 0 3.51 4.831l5.851 3.105a2.29 2.29 0 0 1 .989 3.042l-2.91 5.951a6.756 6.756 0 0 0 0 5.971l2.91 5.952a2.291 2.291 0 0 1-.989 3.042z" fill="#473D66"/>
        <path d="M55.435 22.564a2.25 2.25 0 0 0-3.181 0l-29.69 29.69a2.25 2.25 0 0 0 3.181 3.182l29.69-29.69a2.25 2.25 0 0 0 0-3.182z" fill="#473D66"/>
        <path d="M30.003 18.756c-4.548 0-8.248 3.7-8.248 8.248 0 4.547 3.7 8.247 8.248 8.247 4.547 0 8.247-3.7 8.247-8.247 0-4.548-3.7-8.248-8.247-8.248zm0 11.996a3.753 3.753 0 0 1-3.75-3.749 3.753 3.753 0 0 1 3.75-3.748 3.753 3.753 0 0 1 3.749 3.748 3.753 3.753 0 0 1-3.75 3.75zM47.998 42.749c-4.548 0-8.248 3.7-8.248 8.248 0 4.547 3.7 8.247 8.248 8.247 4.547 0 8.247-3.7 8.247-8.247 0-4.548-3.7-8.248-8.247-8.248zm0 11.996a3.753 3.753 0 0 1-3.75-3.748 3.753 3.753 0 0 1 3.75-3.75 3.753 3.753 0 0 1 3.748 3.75 3.753 3.753 0 0 1-3.748 3.748z" fill="#FFE0A3"/>
    </g>
    <defs>
        
    <clipPath id="clip0">
            <path fill="#fff" d="M0 0h78v78H0z"/>
        </clipPath></defs>
</svg>
