<svg width="13" height="13" viewBox="0 0 13 13" fill="none" xmlns="http://www.w3.org/2000/svg">
<path d="M6.49999 12.2768C6.31491 12.2768 6.13649 12.2097 5.99743 12.0879C5.47226 11.6287 4.96594 11.1972 4.51923 10.8165L4.51694 10.8145C3.20725 9.69843 2.07627 8.73457 1.28937 7.7851C0.409721 6.72366 0 5.71725 0 4.61782C0 3.54963 0.366279 2.56416 1.03129 1.8428C1.70424 1.11292 2.62763 0.710938 3.63165 0.710938C4.38206 0.710938 5.06929 0.948181 5.6742 1.41602C5.97948 1.65218 6.2562 1.94119 6.49999 2.27831C6.74388 1.94119 7.02049 1.65218 7.32588 1.41602C7.93079 0.948181 8.61802 0.710938 9.36843 0.710938C10.3723 0.710938 11.2958 1.11292 11.9688 1.8428C12.6338 2.56416 13 3.54963 13 4.61782C13 5.71725 12.5904 6.72366 11.7107 7.785C10.9238 8.73457 9.79293 9.69833 8.48343 10.8143C8.03592 11.1956 7.5288 11.6278 7.00244 12.0881C6.86349 12.2097 6.68496 12.2768 6.49999 12.2768ZM3.63165 1.47246C2.84285 1.47246 2.11823 1.78726 1.59108 2.35895C1.05609 2.93926 0.76142 3.74145 0.76142 4.61782C0.76142 5.5425 1.10509 6.36948 1.87563 7.29921C2.62039 8.1979 3.72815 9.14191 5.01077 10.235L5.01315 10.237C5.46155 10.6191 5.96986 11.0524 6.4989 11.5149C7.03111 11.0515 7.54021 10.6175 7.9895 10.2348C9.27202 9.14172 10.3797 8.1979 11.1244 7.29921C11.8949 6.36948 12.2386 5.5425 12.2386 4.61782C12.2386 3.74145 11.9439 2.93926 11.4089 2.35895C10.8818 1.78726 10.1571 1.47246 9.36843 1.47246C8.79059 1.47246 8.26007 1.65614 7.79163 2.01836C7.37418 2.34129 7.08338 2.74953 6.91288 3.03517C6.82521 3.18206 6.67088 3.26974 6.49999 3.26974C6.3291 3.26974 6.17477 3.18206 6.08709 3.03517C5.9167 2.74953 5.6259 2.34129 5.20834 2.01836C4.7399 1.65614 4.20938 1.47246 3.63165 1.47246Z" fill="#BDB9C8"/>
</svg>
