<svg width="10" height="10" viewBox="0 0 10 10" fill="none" xmlns="http://www.w3.org/2000/svg">
	<g clip-path="url(#clip0)">
	<path d="M0.603846 5.34614C0.534615 5.27691 0.5 5.17307 0.5 5.10384C0.5 5.03461 0.534615 4.93076 0.603846 4.86153L1.08846 4.37691C1.22692 4.23845 1.43462 4.23845 1.57308 4.37691L1.60769 4.41153L3.51154 6.45384C3.58077 6.52307 3.68462 6.52307 3.75385 6.45384L8.39231 1.6423H8.42692V1.6423C8.56538 1.50384 8.77308 1.50384 8.91154 1.6423L9.39615 2.12691C9.53462 2.26538 9.53462 2.47307 9.39615 2.61153L3.85769 8.35768C3.78846 8.42691 3.71923 8.46153 3.61538 8.46153C3.51154 8.46153 3.44231 8.42691 3.37308 8.35768L0.673077 5.44999L0.603846 5.34614V5.34614Z" fill="#473D66"/>
	</g>
	<defs>
	<clipPath id="clip0">
	<rect width="9" height="9" fill="white" transform="translate(0.5 0.5)"/>
	</clipPath>
	</defs>
</svg>
