<svg width="50" height="50" viewBox="0 0 50 50" fill="none" xmlns="http://www.w3.org/2000/svg">
<path d="M37.6959 33.2039H32.5685V30.1441C35.5351 27.8662 37.4514 24.2851 37.4514 20.2643V18.0666H38.6721C39.0767 18.0666 39.4046 17.7388 39.4046 17.3342C39.4046 16.6189 38.6983 15.8366 37.4514 15.1236V12.4514C37.4514 5.58562 31.8658 0 25 0C18.1342 0 12.5487 5.58562 12.5487 12.4513V15.1235C11.3018 15.8365 10.5956 16.6188 10.5956 17.3341C10.5956 17.7387 10.9234 18.0665 11.328 18.0665H12.5487V20.2642C12.5487 24.2851 14.465 27.8661 17.4317 30.1441V33.2038H12.3043C9.2079 33.2038 6.68896 35.7227 6.68896 38.8191C6.68896 38.821 6.68926 38.8228 6.68926 38.8248V42.7253C6.68926 43.1296 7.01728 43.4577 7.42168 43.4577C7.825 43.4577 8.1541 43.1296 8.1541 42.7253V38.819C8.1541 38.8177 8.1539 38.8165 8.1539 38.8153C8.15595 36.5286 10.017 34.6687 12.3043 34.6687H17.9423L20.6873 36.4988C20.6979 36.5058 20.7093 36.5108 20.7201 36.5171C20.7345 36.5258 20.7489 36.5343 20.7638 36.5418C20.7845 36.5523 20.8055 36.5611 20.8268 36.5695C20.8408 36.575 20.8542 36.5807 20.8686 36.5854C20.8928 36.5932 20.9172 36.5989 20.9418 36.6041C20.9544 36.6067 20.9667 36.6103 20.9795 36.6124C21.0149 36.6179 21.0504 36.6209 21.0859 36.6213C21.0883 36.6213 21.0907 36.6219 21.0931 36.6219C21.1327 36.6219 21.1726 36.6174 21.2128 36.6108C21.2319 36.6077 21.251 36.6048 21.2698 36.6002C21.2704 36.6001 21.2708 36.6001 21.2714 36.6L25.0001 35.6678L28.7289 36.6C28.7295 36.6001 28.7301 36.6001 28.7306 36.6002C28.7498 36.605 28.7693 36.6079 28.7891 36.6111C28.8286 36.6175 28.8682 36.6219 28.9072 36.6219C28.9097 36.6219 28.9121 36.6213 28.9145 36.6213C28.9499 36.6209 28.9855 36.6179 29.0208 36.6124C29.0336 36.6103 29.0459 36.6067 29.0585 36.6041C29.0831 36.5988 29.1076 36.5932 29.1317 36.5854C29.146 36.5807 29.1596 36.575 29.1735 36.5695C29.1948 36.5611 29.2158 36.5523 29.2365 36.5418C29.2515 36.5343 29.2659 36.5258 29.2803 36.5171C29.2911 36.5108 29.3024 36.5058 29.313 36.4988L32.058 34.6687H37.696C39.9845 34.6687 41.8464 36.5305 41.8464 38.8192V48.5348H37.4516V43.3102C37.4516 43.2859 37.4504 43.2615 37.448 43.2372C37.4469 43.2273 37.4451 43.2177 37.4437 43.2078C37.4419 43.194 37.4401 43.1801 37.4375 43.1663C37.4352 43.1546 37.4319 43.1434 37.4291 43.1319C37.4261 43.1201 37.4235 43.1085 37.42 43.0969C37.4166 43.0856 37.4123 43.0745 37.4083 43.0633C37.4043 43.052 37.4005 43.0406 37.3959 43.0293C37.3915 43.0189 37.3863 43.0087 37.3815 42.9986C37.3761 42.9871 37.3711 42.9756 37.365 42.9643C37.3598 42.9546 37.354 42.9455 37.3483 42.9361C37.3418 42.925 37.3353 42.9137 37.3281 42.9029C37.3215 42.8927 37.3138 42.8832 37.3065 42.8735C37.2996 42.864 37.2929 42.8544 37.2854 42.8452C37.2726 42.8296 37.259 42.8149 37.2448 42.8003C37.2422 42.7976 37.2398 42.7945 37.2371 42.7917L34.3074 39.862C34.3049 39.8595 34.3019 39.8573 34.2993 39.8547C34.2847 39.8406 34.2696 39.8266 34.2538 39.8136C34.2452 39.8067 34.2362 39.8005 34.2274 39.794C34.2171 39.7862 34.2068 39.7782 34.1961 39.7709C34.1859 39.7642 34.1755 39.7583 34.1652 39.7522C34.1551 39.746 34.145 39.7397 34.1346 39.734C34.1244 39.7286 34.1138 39.724 34.1034 39.719C34.0922 39.7136 34.081 39.7081 34.0694 39.7033C34.0595 39.6992 34.0494 39.6959 34.0393 39.6923C34.0268 39.6878 34.0144 39.683 34.0017 39.6791C33.9919 39.6762 33.982 39.6741 33.9721 39.6715C33.9588 39.6682 33.9457 39.6645 33.9321 39.6618C33.9213 39.6597 33.9103 39.6584 33.8995 39.6568C33.8867 39.6548 33.8741 39.6525 33.8612 39.6512C33.8432 39.6495 33.8251 39.649 33.8068 39.6485C33.801 39.6484 33.7953 39.6476 33.7894 39.6476H16.2108C16.2078 39.6476 16.2047 39.648 16.2017 39.6481C16.1807 39.6484 16.1597 39.6492 16.1387 39.6512C16.1266 39.6524 16.1148 39.6546 16.1028 39.6564C16.0913 39.6581 16.0796 39.6594 16.068 39.6618C16.0547 39.6644 16.0419 39.668 16.0289 39.6713C16.0187 39.674 16.0086 39.6761 15.9986 39.6791C15.9858 39.683 15.9734 39.6877 15.9609 39.6923C15.9509 39.6959 15.9408 39.6992 15.9309 39.7033C15.919 39.7082 15.9077 39.7139 15.8962 39.7195C15.886 39.7243 15.8758 39.7288 15.866 39.7339C15.8547 39.74 15.8437 39.7469 15.8328 39.7535C15.8233 39.7592 15.8137 39.7645 15.8045 39.7707C15.792 39.779 15.7801 39.7883 15.7681 39.7974C15.7611 39.8028 15.7537 39.8076 15.7468 39.8133C15.7279 39.8288 15.7096 39.8453 15.6922 39.8626L12.7637 42.7913C12.7464 42.8087 12.73 42.8268 12.7144 42.8458C12.7082 42.8534 12.7028 42.8615 12.6969 42.8694C12.6884 42.8805 12.6797 42.8916 12.6719 42.9033C12.6652 42.9134 12.6594 42.9238 12.6533 42.9341C12.6471 42.9442 12.6407 42.9542 12.6351 42.9648C12.6294 42.9754 12.6246 42.9865 12.6194 42.9976C12.6143 43.0081 12.6091 43.0187 12.6046 43.0295C12.6001 43.0405 12.5964 43.0517 12.5924 43.0628C12.5883 43.0741 12.5839 43.0855 12.5804 43.0972C12.577 43.1084 12.5745 43.1198 12.5717 43.1314C12.5686 43.1431 12.5654 43.1546 12.563 43.1666C12.5603 43.1799 12.5588 43.1933 12.5568 43.2067C12.5553 43.2169 12.5534 43.2271 12.5523 43.2374C12.55 43.2615 12.5487 43.2858 12.5487 43.3101V48.5349H8.1541V45.6551C8.1541 45.2518 7.825 44.9227 7.42168 44.9227C7.01728 44.9227 6.68926 45.2518 6.68926 45.6551V49.2616C6.68926 49.2636 6.68896 49.2654 6.68896 49.2674C6.68896 49.5994 6.90996 49.8795 7.21279 49.9693C7.279 49.9891 7.34902 50 7.42168 50C7.42295 50 7.42412 49.9998 7.42539 49.9998H42.575C42.5763 49.9998 42.5775 50 42.5788 50C42.9834 50 43.3112 49.6722 43.3112 49.2676V38.8192C43.3111 35.7229 40.7921 33.2039 37.6959 33.2039ZM14.0136 12.4513C14.0136 6.39343 18.9422 1.46484 25 1.46484C31.0578 1.46484 35.9865 6.39343 35.9865 12.4513V14.4208C35.9133 14.391 35.839 14.3615 35.7638 14.3322C33.8437 13.5855 30.4178 12.6955 25 12.6955C19.5823 12.6955 16.1564 13.5855 14.2363 14.3322C14.161 14.3615 14.0868 14.3911 14.0135 14.4208V12.4513H14.0136ZM15.1165 15.5667C16.8968 14.9251 20.0569 14.1603 25.0001 14.1603C29.9434 14.1603 33.1033 14.9251 34.8838 15.5667C35.8483 15.9143 36.5595 16.2817 37.0538 16.6017H12.9465C13.4407 16.2819 14.1519 15.9145 15.1165 15.5667ZM24.2676 34.3409L21.2303 35.1002L18.8965 33.5442V31.1136C20.501 32.0198 22.3251 32.5801 24.2676 32.6934V34.3409ZM31.1036 33.5443L28.7698 35.1003L25.7325 34.341V32.6935C27.675 32.5802 29.4992 32.0197 31.1037 31.1135V33.5443H31.1036ZM25.1486 31.2488C25.1006 31.2389 25.0509 31.2338 25 31.2338C24.9492 31.2338 24.8995 31.239 24.8516 31.2488C18.862 31.169 14.0136 26.2727 14.0136 20.2643V18.0666H35.9866V20.2643C35.9865 26.2727 31.1382 31.169 25.1486 31.2488ZM16.5142 41.1124H33.4859L34.9508 42.5773H15.0494L16.5142 41.1124ZM35.9866 48.5348H14.0136V44.0421H35.9867V48.5348H35.9866Z" fill="#473D66"/>
<path d="M25 4.88269C23.5192 4.88269 22.3145 6.08747 22.3145 7.56823C22.3145 9.04898 23.5192 10.2538 25 10.2538C26.4807 10.2538 27.6855 9.04898 27.6855 7.56823C27.6856 6.08747 26.4808 4.88269 25 4.88269ZM25 8.78893C24.3268 8.78893 23.7793 8.24137 23.7793 7.56823C23.7793 6.89508 24.3269 6.34753 25 6.34753C25.6731 6.34753 26.2207 6.89508 26.2207 7.56823C26.2207 8.24137 25.6732 8.78893 25 8.78893Z" fill="#473D66"/>
</svg>
