<svg xmlns="http://www.w3.org/2000/svg" width="6" height="10" fill="none">
  <mask id="a" width="6" height="10" x="-.23" y="0" fill="#000" maskUnits="userSpaceOnUse">
    <path fill="#fff" d="M-.23 0h6v10h-6z"/>
    <path d="M4.45 5L.84 8.61a.23.23 0 0 0 0 .32c.09.1.23.1.32 0l3.77-3.77a.23.23 0 0 0 0-.32L1.16 1.07A.23.23 0 0 0 1 1a.22.22 0 0 0-.16.07.23.23 0 0 0 0 .32L4.45 5z"/>
  </mask>
  <path fill="#473D66" d="M4.45 5L.84 8.61a.23.23 0 0 0 0 .32c.09.1.23.1.32 0l3.77-3.77a.23.23 0 0 0 0-.32L1.16 1.07A.23.23 0 0 0 1 1a.22.22 0 0 0-.16.07.23.23 0 0 0 0 .32L4.45 5z"/>
  <path fill="#473D66" d="M4.45 5l.29.28.28-.28-.28-.28-.29.28zM.84 8.61l.28.29-.28-.29zm.32.32l-.28-.28.28.28zm3.77-3.77l.29.28-.29-.28zm0-.32l.29-.28-.29.28zM1.16 1.07l-.28.28.28-.28zm-.32 0l.28.28h.01l-.29-.28zm0 .32l.28-.29-.28.29zm3.33 3.33L.56 8.33l.56.57 3.62-3.62-.57-.56zM.56 8.33a.63.63 0 0 0 0 .89l.56-.57c.07.07.07.18 0 .25l-.56-.57zm0 .89c.24.24.64.24.88 0l-.56-.57a.17.17 0 0 1 .24 0l-.56.57zm.88 0l3.78-3.78-.57-.56L.88 8.65l.56.57zm3.78-3.78a.63.63 0 0 0 0-.88l-.57.56a.17.17 0 0 1 0-.24l.57.56zm0-.88L1.44.78l-.56.57 3.77 3.77.57-.56zM1.44.78A.63.63 0 0 0 1 .6v.8a.17.17 0 0 1-.12-.05l.56-.57zM1 .6a.62.62 0 0 0-.45.19l.58.55A.18.18 0 0 1 1 1.4V.6zM.56.78a.63.63 0 0 0 0 .89l.56-.57c.07.07.07.18 0 .25L.56.78zm0 .89l3.61 3.61.57-.56L1.12 1.1l-.56.57z" mask="url(#a)"/>
</svg>