<svg width="13" height="7" viewBox="0 0 13 7" fill="none" xmlns="http://www.w3.org/2000/svg">
<mask id="path-1-outside-1" maskUnits="userSpaceOnUse" x="0" y="-0.406128" width="13" height="8" fill="black">
<rect fill="white" y="-0.406128" width="13" height="8"/>
<path d="M6.49971 5.65328L1.53193 0.685505C1.40976 0.563328 1.21381 0.563328 1.09163 0.685505C0.969456 0.807683 0.969456 1.00363 1.09163 1.1258L6.28071 6.31489C6.40289 6.43706 6.59884 6.43706 6.72101 6.31489L11.9078 1.1258C11.9677 1.06587 12 0.985185 12 0.906807C12 0.828429 11.97 0.747746 11.9078 0.68781C11.7856 0.565633 11.5897 0.565633 11.4675 0.68781L6.49971 5.65328Z"/>
</mask>
<path d="M6.49971 5.65328L1.53193 0.685505C1.40976 0.563328 1.21381 0.563328 1.09163 0.685505C0.969456 0.807683 0.969456 1.00363 1.09163 1.1258L6.28071 6.31489C6.40289 6.43706 6.59884 6.43706 6.72101 6.31489L11.9078 1.1258C11.9677 1.06587 12 0.985185 12 0.906807C12 0.828429 11.97 0.747746 11.9078 0.68781C11.7856 0.565633 11.5897 0.565633 11.4675 0.68781L6.49971 5.65328Z" fill="#BDB9C8"/>
<path d="M6.49971 5.65328L6.21687 5.93613L6.49965 6.2189L6.78249 5.93619L6.49971 5.65328ZM1.53193 0.685505L1.24909 0.968348L1.53193 0.685505ZM1.09163 1.1258L1.37448 0.842962L1.37448 0.842962L1.09163 1.1258ZM6.28071 6.31489L5.99787 6.59773L6.28071 6.31489ZM6.72101 6.31489L7.00386 6.59773L7.00392 6.59767L6.72101 6.31489ZM11.9078 1.1258L11.6249 0.842962L11.6249 0.843025L11.9078 1.1258ZM11.9078 0.68781L11.6249 0.970703L11.6303 0.975938L11.9078 0.68781ZM11.4675 0.68781L11.7503 0.970718L11.7503 0.970653L11.4675 0.68781ZM6.78255 5.37044L1.81478 0.402662L1.24909 0.968348L6.21687 5.93613L6.78255 5.37044ZM1.81478 0.402662C1.53639 0.124275 1.08718 0.124275 0.80879 0.402662L1.37448 0.968348C1.34044 1.00238 1.28312 1.00238 1.24909 0.968348L1.81478 0.402662ZM0.80879 0.402662C0.530403 0.68105 0.530403 1.13026 0.80879 1.40865L1.37448 0.842962C1.40851 0.876994 1.40851 0.934316 1.37448 0.968348L0.80879 0.402662ZM0.80879 1.40865L5.99787 6.59773L6.56356 6.03204L1.37448 0.842962L0.80879 1.40865ZM5.99787 6.59773C6.27626 6.87612 6.72547 6.87612 7.00386 6.59773L6.43817 6.03204C6.4722 5.99801 6.52952 5.99801 6.56356 6.03204L5.99787 6.59773ZM7.00392 6.59767L12.1907 1.40858L11.6249 0.843025L6.43811 6.03211L7.00392 6.59767ZM12.1906 1.40865C12.3252 1.2741 12.4 1.09185 12.4 0.906807H11.6C11.6 0.891509 11.603 0.879241 11.607 0.86978C11.611 0.860123 11.6169 0.851002 11.6249 0.842962L12.1906 1.40865ZM12.4 0.906807C12.4 0.728581 12.3319 0.540949 12.1852 0.399682L11.6303 0.975938C11.6081 0.954543 11.6 0.928278 11.6 0.906807H12.4ZM12.1906 0.404967C11.9122 0.12658 11.463 0.12658 11.1846 0.404967L11.7503 0.970653C11.7163 1.00468 11.659 1.00468 11.6249 0.970653L12.1906 0.404967ZM11.1847 0.404902L6.21694 5.37038L6.78249 5.93619L11.7503 0.970718L11.1847 0.404902Z" fill="#BDB9C8" mask="url(#path-1-outside-1)"/>
</svg>
