<svg xmlns="http://www.w3.org/2000/svg" width="17" height="17" fill="none">
	<g fill="#473D66" clip-path="url(#cart1)">
		<path d="M16.9 2.47a.5.5 0 0 0-.39-.18H3.46L3.09.7a.49.49 0 0 0-.47-.38H.49a.49.49 0 0 0 0 .98h1.74L4.7 12.04c.05.23.25.38.48.38h9.83a.49.49 0 0 0 0-.98H5.57L5.2 9.81h9.85c.23 0 .43-.16.48-.39l1.47-6.53c.03-.15 0-.3-.1-.42zm-2.25 6.36H4.97L3.68 3.27H15.9l-1.25 5.56zM7.2 13.08a1.8 1.8 0 1 0 0 3.6 1.8 1.8 0 0 0 0-3.6zm0 2.61a.82.82 0 1 1 0-1.63.82.82 0 0 1 0 1.63zM13.08 13.08a1.8 1.8 0 1 0 0 3.6 1.8 1.8 0 0 0 0-3.6zm0 2.61a.82.82 0 1 1 0-1.63.82.82 0 0 1 0 1.63z"/>
	</g>
	<defs>
		<clipPath id="cart1">
			<path fill="#fff" d="M0 0h17v17H0z"/>
		</clipPath>
	</defs>
</svg>