<svg xmlns="http://www.w3.org/2000/svg" width="16" height="18" fill="none">
  <mask id="a" width="17" height="18" x="-.43" y="0" fill="#000" maskUnits="userSpaceOnUse">
    <path fill="#fff" d="M-.43 0h17v18h-17z"/>
    <path d="M4.8 11.53h8.82c1 0 1.81-.81 1.81-1.81V6.01 6v-.03-.02-.02-.02l-.01-.02v-.02l-.02-.02v-.03l-.02-.01v-.02l-.01-.02-.02-.02-.01-.02-.01-.01-.02-.02-.01-.01-.02-.02-.01-.01-.02-.01-.02-.01-.02-.02h-.02l-.02-.02h-.02l-.02-.01-.02-.01h-.02-.02l-.02-.01L3.88 4.03V2.47v-.05-.01l-.01-.03v-.03l-.01-.01-.01-.03v-.02a.1.1 0 0 0-.02-.02v-.01l-.02-.02v-.02l-.02-.02-.01-.02a9.17 9.17 0 0 0-.06-.06H3.7L3.7 2.1l-.03-.02h-.01l-.04-.03-2.43-1.01a.44.44 0 1 0-.34.81l2.15.91V12.5c0 .92.69 1.68 1.58 1.8a1.8 1.8 0 1 0 3.08.01h4a1.8 1.8 0 1 0 1.55-.89h-8.4a.93.93 0 0 1-.92-.92v-1.2c.27.15.58.24.92.24zm2.21 3.67a.9.9 0 0 1-1.8 0c0-.5.4-.9.9-.9s.9.4.9.9zm7.09 0a.9.9 0 0 1-1.81 0c0-.5.4-.9.9-.9s.9.4.9.9zm-.48-4.55H4.8a.93.93 0 0 1-.92-.93v-4.8L14.55 6.4v3.33c0 .51-.42.93-.93.93z"/>
  </mask>
  <path fill="#BDB9C8" d="M4.8 11.53h8.82c1 0 1.81-.81 1.81-1.81V6.01 6v-.03-.02-.02-.02l-.01-.02v-.02l-.02-.02v-.03l-.02-.01v-.02l-.01-.02-.02-.02-.01-.02-.01-.01-.02-.02-.01-.01-.02-.02-.01-.01-.02-.01-.02-.01-.02-.02h-.02l-.02-.02h-.02l-.02-.01-.02-.01h-.02-.02l-.02-.01L3.88 4.03V2.47v-.05-.01l-.01-.03v-.03l-.01-.01-.01-.03v-.02a.1.1 0 0 0-.02-.02v-.01l-.02-.02v-.02l-.02-.02-.01-.02a9.17 9.17 0 0 0-.06-.06H3.7L3.7 2.1l-.03-.02h-.01l-.04-.03-2.43-1.01a.44.44 0 1 0-.34.81l2.15.91V12.5c0 .92.69 1.68 1.58 1.8a1.8 1.8 0 1 0 3.08.01h4a1.8 1.8 0 1 0 1.55-.89h-8.4a.93.93 0 0 1-.92-.92v-1.2c.27.15.58.24.92.24zm2.21 3.67a.9.9 0 0 1-1.8 0c0-.5.4-.9.9-.9s.9.4.9.9zm7.09 0a.9.9 0 0 1-1.81 0c0-.5.4-.9.9-.9s.9.4.9.9zm-.48-4.55H4.8a.93.93 0 0 1-.92-.93v-4.8L14.55 6.4v3.33c0 .51-.42.93-.93.93z"/>
  <path fill="#BDB9C8" d="M15.43 5.95h-.2V6l.02.04.18-.09zm0-.04h.2v-.05l-.03-.04-.18.09zm-.01-.02l.19-.07v-.01l-.01-.01-.18.09zm-.03-.07l.2-.06-.01-.01v-.02l-.19.1zm0-.01l-.18.09.01.02.02.03.14-.14zm-.05-.08l-.18.1.01.02.03.03.14-.15zm-.06-.06l.14-.14-.02-.02-.03-.02-.09.18zm-.07-.05l.14-.14-.02-.02-.03-.02-.09.18zm-.12-.04l-.06.19h.06v-.2zm-.04-.01l-.02.2h.02v-.2zM3.88 4.03h-.2v.17l.17.03.03-.2zm0-1.6h-.2v.04l.2-.05zm0-.02h-.2v.05l.01.04.18-.09zm-.01-.03h.2v-.03l-.01-.03-.2.06zm0-.03h-.2v.07l.2-.07zm-.01-.01h.2V2.3l-.01-.03-.2.07zm-.01-.03h-.2v.03l.01.03.19-.06zm0-.02h.2v-.03l-.01-.03-.2.06zm-.02-.02L4 2.16l-.01-.02-.02-.01-.14.14zm0-.01l-.18.08.01.03.02.03.15-.14zm-.02-.02l-.18.08.02.03.02.03.14-.14zm-.03-.06l.18-.09-.02-.03-.02-.02-.14.14zm0 0l.13-.15-.14.14zm-.03-.03l-.14.14.14-.14zm0 0L3.87 2l-.14.14zm-.03-.03l-.14.15h.01l.02.02.1-.17zm-.02 0l.15-.15-.15.14zM3.7 2.1l.14-.14-.02-.02H3.8l-.11.16zm-.03-.02l-.14.14.02.03.03.01.09-.18zm-.01 0l.14-.15-.02-.02-.03-.01-.1.17zm-.04-.03l.09-.17-.02-.01-.07.18zM1.18 1.04l.08-.19-.08.19zm-.34.81l.08-.18-.08.18zm2.15.91h.2v-.13l-.12-.05-.08.18zM4.57 14.3l.17.1.16-.26-.3-.04-.03.2zm3.08.01v-.2H7.3l.18.3.17-.1zm4 0l.16.1.18-.3h-.35v.2zm-7.77-3.02l.1-.17-.3-.17v.34h.2zm0-6.36l.02-.2-.22-.03v.23h.2zM14.55 6.4h.2v-.17l-.18-.03-.02.2zm0 3.33h-.2.2zM4.8 11.73h8.82v-.4H4.8v.4zm8.82 0c1.1 0 2.01-.9 2.01-2.01h-.4c0 .89-.72 1.61-1.61 1.61v.4zm2.01-2.01V6.01h-.4v3.71h.4zm0-3.71V6h-.4v.01h.4zm0-.01v-.01-.01h-.4V6h.4zm0-.03l-.02-.1-.36.17a.17.17 0 0 1-.01-.05v-.02h.4zm0-.02a.22.22 0 0 0 0-.05.14.14 0 0 1 0 .03h-.4a.22.22 0 0 0 0 .05.14.14 0 0 1 0-.03h.4zm0-.02a.23.23 0 0 0 0-.05l-.01-.01v.04h-.4v.04l.01.01v-.03h.4zm-.03-.11l.01.03v-.03l-.38.13s0-.02 0 0l.02.05.35-.18zm0-.02a.16.16 0 0 1 0 .03.43.43 0 0 0-.01-.05l-.36.18a.16.16 0 0 1 0-.04h-.01a.44.44 0 0 0 .02.05l.36-.17zm-.01-.02a.17.17 0 0 1 .01.03.22.22 0 0 0-.02-.05l-.35.18-.01-.03a.22.22 0 0 0 .01.05l.36-.18zm0-.02l-.38.13.02.05.35-.18zm-.02-.03v-.02l-.04-.04-.29.28a.17.17 0 0 1-.02-.04l.35-.18zm0-.01l-.01-.01V5.7l-.36.18v.02l.36-.18zm-.02-.02l-.01-.03v.01l-.35.18.01.03v-.01l.35-.18zm0-.02a.24.24 0 0 0-.03-.04l.01.02-.36.18a.24.24 0 0 0 .03.04l-.01-.02.35-.18zm-.02-.02l-.05-.07-.28.29a.11.11 0 0 1-.02-.02v-.02l.35-.18zm-.01-.02a.23.23 0 0 0-.05-.06l.01.01.02.04-.35.18c0 .02.02.03.03.04v.01h.01l-.03-.04.36-.18zm-.02-.01a.22.22 0 0 0-.03-.06c-.01 0 0 0 0 0l.02.04-.36.18a.22.22 0 0 0 .05.06h-.01l-.02-.04.35-.18zm0-.02a.22.22 0 0 0-.07-.07h.01l-.28.29.01.01h.01c0 .01 0 0 0 0l-.05-.05.36-.18zm-.06-.06v-.01l-.02-.01-.28.28c.01.01 0 0 0 0l.01.01v.01l.3-.28zm-.07-.06a.18.18 0 0 1 .05.03.22.22 0 0 0-.06-.04l-.18.36a.18.18 0 0 1-.05-.03.22.22 0 0 0 .06.04l.18-.36zm-.01-.01l.01.01-.03-.02-.18.35h-.02s0-.01 0 0a.34.34 0 0 0 .04.02l.18-.36zm-.02-.01h.01l-.03-.01-.18.35h-.01l.03.01.18-.35zm-.02-.01l.03.02-.28.28c.03.04.06.05.07.05l.18-.35zm-.02-.02h-.01c-.01 0 0 0 0 0-.01 0 0 0 0 0h-.01l-.18.35h.01c.01.01 0 0 0 0 0 .01 0 0 0 0v.01c.01 0 0 0 0 0h.01l.18-.36zm-.02 0c-.02-.01 0 0 0-.01h-.01c-.01 0 0 0 0 0-.01 0 0 0 0 0l-.19.35h.01c0 .01 0 0 0 0v.01c.01 0 0 0 0 0h.01l.18-.36zm-.02-.02c-.02 0 0 0 0 0h-.01c-.01 0 0 0 0 0-.01 0 0 0 0 0l-.19.35h.01v.01c.01 0 0 0 0 0h.01l.18-.36zm-.02 0a.24.24 0 0 0-.05-.02h.03l-.18.37a.23.23 0 0 0 .05.01.17.17 0 0 1-.03 0l.18-.37zm-.02-.01a.26.26 0 0 0-.11-.03v.4a.17.17 0 0 1-.05 0l-.02-.01.18-.36zm-.11-.03h.04a.33.33 0 0 0-.04 0h-.02v.4a.2.2 0 0 1-.05-.01.25.25 0 0 0 .07.01v-.4zm.05 0h-.1v.4a.12.12 0 0 1-.03-.01l.13-.38zm-.1 0a.2.2 0 0 1 .08 0 .23.23 0 0 0-.09-.01v.4a.18.18 0 0 1-.07-.01H15a.2.2 0 0 0 .07.01v-.4zm.02 0L3.91 3.82l-.06.4 11.18 1.54.05-.4zm-11-1.35V2.47h-.4v1.56h.4zm0-1.56l-.01-.1-.39.1v-.01h.4zm0-.05v-.04a.23.23 0 0 0-.03-.06l-.36.18-.01-.04v-.04h.4zm0-.01l-.01-.03v-.02.02h-.4V2.41h.4zm-.02-.1V2.3l-.39.13V2.4v.03l.39-.12zm0 .04a.22.22 0 0 0 0-.06c-.01 0 0 0 0 0a.17.17 0 0 1 0 .05h-.4a.22.22 0 0 0 .01.07.17.17 0 0 1 0-.06h.4zm-.01-.08v-.01l-.01-.02-.38.13v.02l.01.01.38-.13zm0 .04a.2.2 0 0 0-.01-.07.16.16 0 0 1 0 .03v.02h-.4a.2.2 0 0 0 .02.07.18.18 0 0 1-.01-.05h.4zm-.01-.08A.3.3 0 0 0 4 2.16l-.33.22-.01-.02.38-.13zm-.07-.1a.2.2 0 0 1 .05.07.23.23 0 0 0-.05-.09l-.29.29a.2.2 0 0 1-.04-.07.23.23 0 0 0 .02.04l.03.04.28-.28zm.04.04l-.06-.08-.28.29-.02-.04.36-.17zm-.02-.02c0-.02-.01-.03-.02-.03l.01.01-.36.18.02.03v-.02l.35-.17zm0-.02l-.03-.03.01.01-.36.18.02.03v-.01l.35-.18zm-.02-.02a.24.24 0 0 0-.01-.03h-.01c0-.01 0 0 0 0v.01l-.35.18c0 .02.01.03.02.03V2.3l.35-.18zm-.05-.07l-.3.27h.01c0 .01 0 0 0 0v.01l.3-.28zm0 0l-.02-.02-.3.27.02.01v.01l.3-.28zM3.88 2l-.29.27v.01l.3-.28zm0 0l-.06-.05-.22.33H3.6L3.88 2zm-.03-.03a.22.22 0 0 0-.04-.03.1.1 0 0 1 .01.01l.02.01-.29.29a.22.22 0 0 0 .04.02.14.14 0 0 1-.02-.01l.28-.29zm-.01 0l-.04-.03h.02l-.29.29.03.03v-.01l.28-.29zm-.05-.05l-.05-.03-.18.36.23-.33zm0 0a.21.21 0 0 0-.06-.03.18.18 0 0 1 .05.03l-.28.29a.21.21 0 0 0 .05.03.19.19 0 0 1-.04-.03l.28-.28zm-.06-.03l-.03-.02H3.7l-.18.35.03.02.19-.35zm-.06-.03L1.26.85l-.15.37 2.42 1.02.15-.37zM1.26.85a.64.64 0 0 0-.84.34l.36.16c.06-.13.2-.18.33-.13l.15-.37zm-.84.34c-.14.33.01.71.34.85l.15-.37a.24.24 0 0 1-.13-.32l-.36-.16zm.34.85l2.15.9.16-.36-2.15-.91-.16.37zm2.03.72v2.01h.4v-2h-.4zm0 2.01v.32h.4v-.32h-.4zm0 .32v2.45h.4V5.09h-.4zm0 2.45v2.19h.4v-2.2h-.4zm0 2.19v2.76h.4V9.73h-.4zm0 2.76c0 1.02.76 1.87 1.75 2l.06-.4c-.8-.1-1.41-.78-1.41-1.6h-.4zm1.6 1.7a2 2 0 0 0-.28 1.02h.4c0-.3.09-.58.23-.82l-.34-.2zm-.28 1.02c0 1.1.9 1.99 2 1.99v-.4a1.6 1.6 0 0 1-1.6-1.6h-.4zm2 1.99a2 2 0 0 0 1.99-2h-.4c0 .88-.72 1.6-1.6 1.6v.4zm1.99-2c0-.36-.1-.7-.28-1l-.34.2c.14.24.22.51.22.8h.4zm-.45-.7h4v-.4h-4v.4zm3.82-.3c-.18.3-.27.64-.27 1h.4c0-.28.08-.56.21-.8l-.34-.2zm-.27 1c0 1.1.9 2 1.99 2v-.4a1.6 1.6 0 0 1-1.6-1.6h-.4zm1.99 2a2 2 0 0 0 1.99-2h-.4c0 .88-.72 1.6-1.6 1.6v.4zm1.99-2a2 2 0 0 0-2-1.98v.4c.88 0 1.6.71 1.6 1.59h.4zm-2-1.98H4.8v.4h8.39v-.4zm-8.38 0a.73.73 0 0 1-.72-.73h-.4c0 .62.5 1.13 1.12 1.13v-.4zm-.72-.73v-1.2h-.4v1.2h.4zm-.3-1.03c.3.17.65.27 1.02.27v-.4c-.3 0-.58-.08-.82-.22l-.2.35zM6.8 15.2a.7.7 0 0 1-.7.7v.4c.6 0 1.1-.48 1.1-1.1h-.4zm-.7.7a.7.7 0 0 1-.7-.7H5c0 .61.5 1.1 1.1 1.1v-.4zm-.7-.7c0-.38.31-.7.7-.7v-.4c-.6 0-1.1.5-1.1 1.1h.4zm.7-.7c.39 0 .7.32.7.7h.4c0-.6-.5-1.1-1.1-1.1v.4zm7.79.7a.7.7 0 0 1-.7.7v.4c.6 0 1.1-.48 1.1-1.1h-.4zm-.7.7a.7.7 0 0 1-.71-.7h-.4c0 .61.5 1.1 1.1 1.1v-.4zm-.71-.7c0-.38.32-.7.7-.7v-.4c-.6 0-1.1.5-1.1 1.1h.4zm.7-.7c.39 0 .7.32.7.7h.4c0-.6-.5-1.1-1.1-1.1v.4zm.43-4.05H4.8v.4h8.82v-.4zm-8.82 0a.73.73 0 0 1-.72-.73h-.4c0 .62.5 1.13 1.12 1.13v-.4zm-.72-.73V7.53h-.4v2.19h.4zm0-2.19V5.1h-.4v2.44h.4zm0-2.44v-.17h-.4v.17h.4zm-.23.03l10.67 1.47.05-.4L3.9 4.72l-.05.4zm10.5 1.27v3.33h.4V6.39h-.4zm0 3.33c0 .4-.33.73-.73.73v.4c.62 0 1.13-.5 1.13-1.13h-.4z" mask="url(#a)"/>
</svg>