<svg width="78" height="78" viewBox="0 0 78 78" fill="none" xmlns="http://www.w3.org/2000/svg">
<g clip-path="url(#clip0)">
<path d="M72.8135 40.0102C72.4997 39.3681 72.4997 38.6317 72.8135 37.9897L75.7226 32.0384C77.3424 28.7248 76.059 24.7754 72.801 23.0467L66.9495 19.942C66.3182 19.6071 65.8854 19.0112 65.7619 18.3075L64.6175 11.7828C63.9802 8.15002 60.6198 5.70888 56.9686 6.22547L50.4098 7.15324C49.7019 7.25318 49.0019 7.02558 48.4883 6.52879L43.7274 1.92316C41.0765 -0.641383 36.9237 -0.641535 34.2729 1.92316L29.5119 6.52924C28.9982 7.02619 28.2982 7.25333 27.5904 7.1537L21.0316 6.22593C17.3791 5.70903 14.02 8.15048 13.3827 11.7832L12.2383 18.3076C12.1148 19.0115 11.682 19.6073 11.0508 19.9423L5.19932 23.047C1.94131 24.7755 0.657975 28.7253 2.27768 32.0389L5.18667 37.99C5.5005 38.6322 5.5005 39.3686 5.18667 40.0106L2.27753 45.9617C0.657822 49.2753 1.94116 53.2248 5.19916 54.9534L11.0507 58.0582C11.682 58.393 12.1148 58.989 12.2383 59.6926L13.3827 66.2173C13.9628 69.5244 16.7986 71.8437 20.0576 71.8434C20.3786 71.8434 20.7043 71.8208 21.0317 71.7745L27.5905 70.8467C28.2979 70.7463 28.9983 70.9744 29.512 71.4712L34.2729 76.0768C35.5986 77.3592 37.299 78.0003 39.0001 78.0002C40.7007 78 42.4022 77.3589 43.7273 76.0768L48.4883 71.4712C49.002 70.9744 49.7022 70.7474 50.4098 70.8467L56.9686 71.7745C60.6215 72.2912 63.9802 69.85 64.6175 66.2172L65.762 59.6928C65.8856 58.989 66.3184 58.3932 66.9495 58.0582L72.801 54.9534C76.059 53.2249 77.3424 49.2751 75.7226 45.9615L72.8135 40.0102ZM70.6924 50.9792L64.841 54.084C62.9754 55.0741 61.6958 56.8348 61.331 58.9152L60.1866 65.4398C59.971 66.6689 58.8347 67.4944 57.5987 67.32L51.0399 66.3922C48.9482 66.0959 46.8785 66.7691 45.3604 68.2376L40.5994 72.843C39.7027 73.7105 38.2976 73.7105 37.4006 72.843L32.6398 68.2374C31.3567 66.9963 29.6795 66.3237 27.9284 66.3237C27.6076 66.3237 27.2842 66.3462 26.9603 66.3921L20.4015 67.3198C19.1666 67.4944 18.0293 66.6687 17.8136 65.4396L16.6691 58.9149C16.304 56.8345 15.0247 55.0736 13.1589 54.0838L7.30744 50.9791C6.20508 50.3942 5.77091 49.058 6.31888 47.937L9.22802 41.9857C10.1555 40.0881 10.1555 37.9117 9.22802 36.0141L6.31888 30.0629C5.77091 28.9418 6.20508 27.6056 7.30744 27.0207L13.1589 23.916C15.0245 22.9259 16.304 21.1651 16.6689 19.0847L17.8133 12.5602C18.029 11.3311 19.1652 10.5054 20.4012 10.68L26.96 11.6077C29.0509 11.9037 31.1214 11.2309 32.6395 9.76242L37.4005 5.15679C38.2972 4.28935 39.7022 4.28935 40.5992 5.15679L45.3601 9.76242C46.8782 11.231 48.9484 11.9037 51.0396 11.6077L57.5984 10.68C58.8335 10.5052 59.9707 11.3311 60.1863 12.5602L61.3307 19.0849C61.6957 21.1653 62.9751 22.9262 64.8408 23.916L70.6923 27.0207C71.7946 27.6056 72.2288 28.9418 71.6808 30.0629L68.7717 36.014C67.8442 37.9114 67.8442 40.0881 68.7717 41.9855L71.6808 47.9366C72.229 49.058 71.7948 50.3944 70.6924 50.9792Z" fill="#473D66"/>
<path d="M55.4351 22.5644C54.5569 21.686 53.1325 21.686 52.254 22.5644L22.5641 52.2545C21.6857 53.1329 21.6857 54.5571 22.5641 55.4356C23.0033 55.8748 23.579 56.0944 24.1545 56.0944C24.7301 56.0944 25.3059 55.8749 25.745 55.4356L55.435 25.7456C56.3137 24.867 56.3137 23.4429 55.4351 22.5644Z" fill="#473D66"/>
<path d="M30.0026 18.7559C25.4548 18.7559 21.7549 22.4558 21.7549 27.0036C21.7549 31.5513 25.4548 35.2513 30.0026 35.2513C34.5503 35.2513 38.2503 31.5513 38.2503 27.0036C38.2503 22.4558 34.5503 18.7559 30.0026 18.7559ZM30.0026 30.7524C27.9354 30.7524 26.2537 29.0707 26.2537 27.0034C26.2537 24.9363 27.9354 23.2545 30.0026 23.2545C32.0697 23.2545 33.7516 24.9363 33.7516 27.0034C33.7514 29.0707 32.0697 30.7524 30.0026 30.7524Z" fill="#FFE0A3"/>
<path d="M47.9977 42.7489C43.4499 42.7489 39.75 46.4489 39.75 50.9966C39.75 55.5443 43.4499 59.2443 47.9977 59.2443C52.5454 59.2443 56.2454 55.5443 56.2454 50.9966C56.2454 46.4489 52.5454 42.7489 47.9977 42.7489ZM47.9977 54.7455C45.9305 54.7455 44.2487 53.0637 44.2487 50.9966C44.2487 48.9295 45.9304 47.2477 47.9977 47.2477C50.0648 47.2477 51.7465 48.9295 51.7465 50.9966C51.7465 53.0637 50.0648 54.7455 47.9977 54.7455Z" fill="#FFE0A3"/>
</g>
<defs>
<clipPath id="clip0">
<rect width="78" height="78" fill="white"/>
</clipPath>
</defs>
</svg>
