<svg width="15" height="15" viewBox="0 0 15 15" fill="none" xmlns="http://www.w3.org/2000/svg">
<g clip-path="url(#clip0)">
<path d="M6.63844 7.99178H10.605C10.6656 8.1528 10.7604 8.30375 10.89 8.43307C11.1257 8.66836 11.4392 8.79802 11.7726 8.79802C12.106 8.79802 12.4195 8.66836 12.6553 8.43307C13.1419 7.94738 13.1419 7.15705 12.6553 6.67125C12.4195 6.43595 12.106 6.30641 11.7727 6.30641C11.4392 6.30641 11.1257 6.43595 10.89 6.67125C10.7604 6.80056 10.6657 6.95163 10.6052 7.11265H6.63844C6.57825 6.79736 6.4551 6.50405 6.28184 6.2469L8.28159 4.25539C8.66572 4.52856 9.13493 4.68981 9.6414 4.68981C10.937 4.68981 11.991 3.63798 11.991 2.3449C11.991 1.05195 10.937 0 9.6414 0C8.3458 0 7.29192 1.05195 7.29192 2.3449C7.29192 2.81526 7.43181 3.25345 7.67169 3.62092L5.66265 5.6217C5.28391 5.36066 4.82513 5.2072 4.33093 5.2072C3.03544 5.2072 1.98145 6.25914 1.98145 7.55221C1.98145 8.84517 3.03544 9.89712 4.33093 9.89712C4.83121 9.89712 5.29515 9.73976 5.67664 9.47277L7.5725 11.3234C7.30981 11.702 7.15547 12.1608 7.15547 12.655C7.15547 13.9481 8.20935 14.9999 9.50495 14.9999C10.8006 14.9999 11.8544 13.9481 11.8544 12.655C11.8544 11.3621 10.8004 10.3101 9.50495 10.3101C9.02244 10.3101 8.57341 10.4563 8.19995 10.7062L6.29112 8.843C6.45945 8.58928 6.57939 8.30123 6.63844 7.99178ZM11.5127 7.29289C11.5822 7.22365 11.6744 7.18543 11.7727 7.18543C11.8708 7.18543 11.963 7.22365 12.0325 7.29289C12.1757 7.43583 12.1757 7.6686 12.0325 7.81154C11.963 7.88078 11.8708 7.919 11.7726 7.919C11.6744 7.919 11.5822 7.88078 11.5127 7.81154C11.3695 7.6686 11.3695 7.43583 11.5127 7.29289ZM9.6414 0.879024C10.4513 0.879024 11.1101 1.5366 11.1101 2.3449C11.1101 3.1532 10.4513 3.81078 9.6414 3.81078C8.83153 3.81078 8.17266 3.1532 8.17266 2.3449C8.17266 1.5366 8.83153 0.879024 9.6414 0.879024ZM2.86219 7.55221C2.86219 6.74392 3.52105 6.08634 4.33093 6.08634C5.14081 6.08634 5.79967 6.74392 5.79967 7.55221C5.79967 8.36051 5.14081 9.01809 4.33093 9.01809C3.52105 9.01809 2.86219 8.36051 2.86219 7.55221ZM10.9737 12.6552C10.9737 13.4635 10.3148 14.121 9.50495 14.121C8.69507 14.121 8.03621 13.4635 8.03621 12.6552C8.03621 11.8469 8.69507 11.1893 9.50495 11.1893C10.3148 11.1893 10.9737 11.8469 10.9737 12.6552Z" fill="#BDB9C8"/>
</g>
<defs>
<clipPath id="clip0">
<rect width="15" height="15" fill="white"/>
</clipPath>
</defs>
</svg>
