<svg width="77" height="77" viewBox="0 0 77 77" fill="none" xmlns="http://www.w3.org/2000/svg">
<g clip-path="url(#clip0)">
<path d="M57.7494 0H19.2494C15.5753 0 12.5859 2.98916 12.5859 6.66351V20.7307C12.5859 24.4049 15.5751 27.3943 19.2494 27.3943H33.1371L36.9289 31.1859C37.3625 31.6198 37.931 31.8365 38.4994 31.8365C39.0679 31.8365 39.6364 31.6198 40.07 31.1859L43.8618 27.3943H57.7494C61.4236 27.3943 64.413 24.4051 64.413 20.7307V6.66351C64.413 2.98916 61.4236 0 57.7494 0ZM59.9706 20.7307C59.9706 21.9555 58.9742 22.9519 57.7494 22.9519H42.9417C42.3526 22.9519 41.7877 23.186 41.3712 23.6025L38.4994 26.4742L35.6276 23.6025C35.211 23.1859 34.6461 22.9519 34.0571 22.9519H19.2494C18.0247 22.9519 17.0283 21.9555 17.0283 20.7307V6.66351C17.0283 5.43873 18.0247 4.44239 19.2494 4.44239H57.7494C58.9742 4.44239 59.9706 5.43873 59.9706 6.66351V20.7307Z" fill="#473D66"/>
<path d="M44.5198 12.1332C44.2586 11.3292 43.5635 10.7431 42.7269 10.6214L41.1819 10.3969L40.4912 8.99708C40.117 8.23896 39.3447 7.75891 38.4994 7.75891C37.6541 7.75891 36.8818 8.23896 36.5076 8.99708L35.8169 10.3969L34.2719 10.6214C33.4353 10.743 32.7402 11.3292 32.479 12.1332C32.2176 12.9372 32.4355 13.82 33.041 14.4099L34.1588 15.4995L33.8949 17.038C33.752 17.8712 34.0945 18.7135 34.7784 19.2104C35.4626 19.7073 36.3693 19.7729 37.1176 19.3794L38.4992 18.6531L39.8809 19.3794C40.2057 19.5503 40.5607 19.6345 40.9144 19.6345C41.3749 19.6345 41.8331 19.4915 42.2201 19.2103C42.904 18.7134 43.2466 17.8712 43.1036 17.0379L42.8397 15.4994L43.9575 14.4098C44.5633 13.82 44.7812 12.9373 44.5198 12.1332Z" fill="#FFE0A3"/>
<path d="M57.8477 12.1332C57.5864 11.3292 56.8913 10.7431 56.0547 10.6214L54.5099 10.3969L53.8191 8.99708C53.445 8.23896 52.6727 7.75891 51.8274 7.75891C50.982 7.75891 50.2098 8.23896 49.8356 8.99708L49.1449 10.3969L47.6 10.6214C46.7634 10.743 46.0683 11.3292 45.8071 12.1332C45.5457 12.9372 45.7636 13.82 46.3691 14.4099L47.4869 15.4995L47.223 17.038C47.0801 17.8712 47.4226 18.7135 48.1066 19.2104C48.7905 19.7073 49.6975 19.7729 50.4457 19.3794L51.8274 18.6531L53.209 19.3794C53.5339 19.5503 53.8888 19.6345 54.2425 19.6345C54.703 19.6345 55.1614 19.4915 55.5482 19.2103C56.2322 18.7134 56.5747 17.8712 56.4317 17.0379L56.1678 15.4994L57.2856 14.4098C57.891 13.82 58.109 12.9373 57.8477 12.1332Z" fill="#FFE0A3"/>
<path d="M31.1933 12.1332C30.9321 11.3292 30.237 10.7431 29.4004 10.6214L27.8556 10.3969L27.1648 8.99708C26.7906 8.23896 26.0184 7.75891 25.173 7.75891C24.3277 7.75891 23.5554 8.23896 23.1813 8.99708L22.4905 10.3969L20.9457 10.6214C20.1091 10.743 19.414 11.3292 19.1528 12.1332C18.8914 12.9372 19.1095 13.82 19.7148 14.4099L20.8326 15.4995L20.5687 17.038C20.4258 17.8712 20.7683 18.7135 21.4522 19.2104C22.1364 19.7073 23.0432 19.7729 23.7914 19.3794L25.173 18.6531L26.5547 19.3794C26.8795 19.5503 27.2345 19.6345 27.5882 19.6345C28.0487 19.6345 28.5071 19.4915 28.8939 19.2103C29.5778 18.7134 29.9204 17.8712 29.7774 17.0379L29.5135 15.4994L30.6313 14.4098C31.2368 13.82 31.4547 12.9373 31.1933 12.1332Z" fill="#FFE0A3"/>
<path d="M38.4993 34.7981C32.3755 34.7981 27.3936 39.7801 27.3936 45.9038C27.3936 52.0276 32.3755 57.0096 38.4993 57.0096C44.6231 57.0096 49.605 52.0276 49.605 45.9038C49.605 39.7801 44.6231 34.7981 38.4993 34.7981ZM38.4993 52.5672C34.8251 52.5672 31.8358 49.578 31.8358 45.9037C31.8358 42.2293 34.825 39.2402 38.4993 39.2402C42.1736 39.2402 45.1628 42.2293 45.1628 45.9037C45.1628 49.578 42.1735 52.5672 38.4993 52.5672Z" fill="#473D66"/>
<path d="M45.1632 58.4904H31.8364C22.8549 58.4904 15.5479 65.7974 15.5479 74.7789C15.5479 76.0057 16.5424 77 17.769 77H59.2305C60.4572 77 61.4516 76.0055 61.4516 74.7789C61.4516 65.7974 54.1447 58.4904 45.1632 58.4904ZM20.1988 72.5578C21.2416 67.084 26.0633 62.9328 31.8362 62.9328H45.1631C50.936 62.9328 55.7576 67.084 56.8004 72.5578H20.1988Z" fill="#473D66"/>
</g>
<defs>
<clipPath id="clip0">
<rect width="77" height="77" fill="white"/>
</clipPath>
</defs>
</svg>
