<svg width="78" height="78" viewBox="0 0 78 78" fill="none" xmlns="http://www.w3.org/2000/svg">
<path d="M70.8719 72.178L65.5295 23.4282C65.2373 20.7611 62.9936 18.75 60.3107 18.75H56.2498V17.25C56.2499 7.7383 48.5115 0 38.9999 0C29.4883 0 21.7499 7.7383 21.7499 17.25V18.75H17.689C15.0061 18.75 12.7623 20.7613 12.4701 23.4282L7.12775 72.1782C6.96566 73.6593 7.44295 75.1451 8.4373 76.2544C9.43165 77.3638 10.8567 78 12.3466 78H65.6532C65.9241 78 66.1928 77.9784 66.4573 77.9372C66.4655 77.9359 66.4739 77.9353 66.4819 77.9339C66.5272 77.9267 66.572 77.9171 66.6168 77.9086C66.662 77.9001 66.7077 77.8929 66.7527 77.8832C66.7839 77.8764 66.8147 77.8679 66.8456 77.8606C66.9038 77.8469 66.962 77.8341 67.0196 77.8184C67.6078 77.6595 68.164 77.3981 68.6637 77.0483C68.6894 77.0303 68.7159 77.0134 68.7414 76.9948C69.0381 76.7791 69.3136 76.5314 69.5623 76.254C70.557 75.1448 71.0341 73.659 70.8719 72.178ZM26.2498 17.25C26.2498 10.2197 31.9694 4.50008 38.9997 4.50008C46.0301 4.50008 51.7497 10.2197 51.7497 17.25V18.75H26.2498V17.25ZM16.9436 23.9183C16.9853 23.5373 17.3058 23.2501 17.689 23.2501H21.7499V30.0001C21.7499 31.2428 22.7573 32.2501 23.9998 32.2501C25.2423 32.2501 26.2498 31.2427 26.2498 30.0001V23.2501H51.7498V30.0001C51.7498 31.2428 52.7573 32.2501 53.9998 32.2501C55.2423 32.2501 56.2498 31.2427 56.2498 30.0001V23.2501H60.3107C60.694 23.2501 61.0143 23.5376 61.0561 23.9184L65.0924 60.75H12.9072L16.9436 23.9183ZM66.2117 73.2505C66.1282 73.3436 65.9446 73.4999 65.6532 73.4999H12.3466C12.0553 73.4999 11.8717 73.3436 11.7881 73.2505C11.7046 73.1574 11.5692 72.9579 11.601 72.6683L12.4142 65.25H65.5857L66.3988 72.6683C66.4305 72.9579 66.2952 73.1576 66.2117 73.2505Z" fill="#473D66"/>
</svg>
