<svg width="18" height="18" viewBox="0 0 18 18" fill="none" xmlns="http://www.w3.org/2000/svg">
	<path d="M16.9464 16.1133L13.1237 12.2906C14.1456 11.0835 14.7619 9.52377 14.7619 7.82217C14.7619 4.00283 11.6555 0.9 7.83975 0.9C4.02041 0.9 0.917578 4.00645 0.917578 7.82217C0.917578 11.6379 4.02399 14.7443 7.83975 14.7443C9.54135 14.7443 11.1011 14.128 12.3082 13.1061L16.1309 16.9288C16.2418 17.0397 16.3914 17.1 16.5387 17.1C16.6839 17.1 16.8345 17.0446 16.947 16.9282C17.1699 16.7046 17.1697 16.3366 16.9464 16.1133ZM2.0719 7.82217C2.0719 4.64196 4.65947 2.05787 7.83621 2.05787C11.0164 2.05787 13.6005 4.64543 13.6005 7.82217C13.6005 10.999 11.0163 13.59 7.83621 13.59C4.65954 13.59 2.0719 11.0025 2.0719 7.82217Z" fill="#BDB9C8" stroke="#BDB9C8" stroke-width="0.2"/>
</svg>